<svg width="20" height="20" viewBox="0 0 20 20" fill="none" xmlns="http://www.w3.org/2000/svg">
<path d="M1 0.25C0.801088 0.25 0.610322 0.329018 0.46967 0.46967C0.329018 0.610322 0.25 0.801088 0.25 1C0.25 1.19891 0.329018 1.38968 0.46967 1.53033C0.610322 1.67098 0.801088 1.75 1 1.75V0.25ZM3 1L3.748 0.942C3.73339 0.753651 3.64824 0.577753 3.50957 0.449462C3.37089 0.321171 3.18891 0.249938 3 0.25V1ZM19 4L19.745 4.083C19.7567 3.97819 19.7461 3.87209 19.714 3.77164C19.6819 3.67118 19.6289 3.57863 19.5586 3.50002C19.4883 3.42141 19.4022 3.35851 19.306 3.31543C19.2097 3.27235 19.1055 3.25006 19 3.25V4ZM1 1.75H3V0.25H1V1.75ZM6.037 14.606L16.392 13.867L16.285 12.371L5.931 13.111L6.037 14.606ZM18.929 11.427L19.745 4.083L18.255 3.917L17.439 11.262L18.929 11.427ZM2.252 1.057L2.483 4.058L3.979 3.942L3.748 0.942L2.252 1.057ZM2.483 4.058L3.1 12.074L4.595 11.959L3.979 3.942L2.483 4.058ZM19 3.25H3.23V4.75H19V3.25ZM16.392 13.867C17.0334 13.8211 17.6385 13.5519 18.102 13.1061C18.5655 12.6603 18.8581 12.0662 18.929 11.427L17.439 11.262C17.4067 11.5526 17.2736 11.8228 17.0628 12.0254C16.8519 12.228 16.5767 12.3503 16.285 12.371L16.392 13.867ZM5.931 13.11C5.60155 13.1337 5.27611 13.0261 5.02578 12.8106C4.77544 12.5951 4.62057 12.2893 4.595 11.96L3.1 12.074C3.15577 12.7984 3.49596 13.4714 4.04626 13.9458C4.59657 14.4202 5.31226 14.6576 6.037 14.606L5.931 13.11Z" fill="#FEFDFB"/>
<path d="M6.5 18.5H6.51V18.51H6.5V18.5ZM15.5 18.5H15.51V18.51H15.5V18.5Z" stroke="#FEFDFB" stroke-width="2.25" stroke-linejoin="round"/>
</svg>
